<svg xmlns="http://www.w3.org/2000/svg" viewBox="0 0 60 30">
  <!-- Blue field -->
  <rect width="60" height="30" fill="#012169"/>
  <!-- White diagonals (full to corners) -->
  <polygon fill="#FFF" points="0,0 6,0 60,24 60,30 54,30 0,6"/>
  <polygon fill="#FFF" points="60,0 54,0 0,24 0,30 6,30 60,6"/>
  <!-- Red diagonals with correct offset (no stroke gaps) -->
  <polygon fill="#C8102E" points="0,0 3.5,0 60,25.5 60,30 56.5,30 0,4.5"/>
  <polygon fill="#C8102E" points="60,0 56.5,0 0,25.5 0,30 3.5,30 60,4.5"/>
  <!-- Central white cross -->
  <rect x="0" y="12" width="60" height="6" fill="#FFF"/>
  <rect x="27" y="0" width="6" height="30" fill="#FFF"/>
  <!-- Central red cross -->
  <rect x="0" y="13.5" width="60" height="3" fill="#C8102E"/>
  <rect x="28.5" y="0" width="3" height="30" fill="#C8102E"/>
</svg>
