<?xml version='1.0' encoding='utf-8'?>
<svg xmlns="http://www.w3.org/2000/svg" width="512" height="512" viewBox="0 0 512 512" version="1.1"><rect x="0" y="0" width="512" height="512" rx="96" ry="96" fill="#666666" /><g transform="translate(64.0000,76.8627) scale(0.627451)" fill="#000000" stroke="#000000"><g>
	<g>
		<path d="M498.871,423.73c6.974-16.475,9.547-34.913,14.051-53.987v-8.876c5.926-26.063-0.941-64.452-7.396-84.308    c-25.225-77.599-74.438-127.683-151.607-153.086c-10.368-3.413-21.69-4.121-32.539-6.656c-12.442-2.908-42.595-2.63-54.727,0    h-8.135c-11.228,2.654-23.267,3.823-34.019,7.395c-21.986,7.304-43.227,16.605-60.644,28.842    c-6.198,4.355-11.8,10.313-17.749,14.792c-9.829,7.4-20.468,16.403-27.363,26.623c-5.72-0.467-8.255-3.486-11.833-5.917    C89.94,177.025,79.765,151.136,93.6,128.65c4.316-7.015,11.798-13.908,19.228-17.749c4.063-2.1,9.73-1.821,13.312-4.438    c3.646-0.096,10.242-0.788,12.572,0.74c0.66,0.869-1.901,6.1-2.958,8.135c-3.076,5.924-7.496,17.542-11.833,22.187    c-0.032,3.725,0.36,5.321,1.479,7.396c17.663-0.393,31.237-8.156,45.112-13.312c19.414-7.213,40.639-10.786,58.423-19.967    c-0.352-16.557-9.433-36.479-14.79-49.549c-7.289-17.784-10.005-37.577-18.489-53.987c-14.491-0.242-17.535,26.178-25.145,34.759    c-1.928,1.165-9.011-2.175-11.833-2.958c-8.214-2.279-18.438-2.418-28.103-2.219c-21.581,0.445-40.682,5.487-54.726,14.051    c-22.824,13.917-40.336,33.823-51.029,59.903c-3.021,7.368-4.06,16.347-5.916,24.405c-2.14,9.287-0.36,28.571,1.479,36.237    c1.527,6.366,0.91,10.684,2.958,16.27c10.788,29.429,31.113,53.675,58.424,66.56c-2.691,10.272-7.216,21.237-10.353,31.8    c-3.472,11.691-1.593,23.232-4.438,36.239c-1.352,6.181-2.312,24.536-0.74,31.801c1.994,9.211,1.247,19.509,3.698,28.842    c2.957,10.599,5.917,21.202,8.875,31.8c-10.858,1.841-27.475,10.972-36.238,16.271c-0.201,11.998,13.803,11.977,22.186,15.53    c16.251,6.889,34.042,13.808,50.29,20.707c6.82,2.896,15.058,3.937,20.707,8.135h8.135c3.22-1.489,7.744-18.513,9.613-22.926    c6.081-14.346,12.5-29.942,18.489-44.371c3.624-8.73,4.985-19.409,10.353-26.625c0.056-3.904-0.304-5.953-1.479-8.135    c-15.608,0.23-26.188,8.088-37.717,13.312c-12.832-32.098-9.399-74.748,2.958-104.276c19.152-45.763,49.692-75.444,98.36-91.703    c24.481-8.18,60.466-10.833,87.266-2.219c17.534,5.636,34.266,13.268,48.07,22.926c29.915,20.929,50.812,52.139,62.123,91.704    c2.366,8.281,0.965,15.234,2.957,24.405c2.219,10.216,0.603,25.358-1.479,34.019c-1.825,7.594-1.482,13.088-3.697,19.968    c-6.771,21.013-17.201,37.489-28.843,53.248c-5.277,7.143-11.455,15.424-18.488,20.707c-17.02,12.783-35.22,24.419-57.685,31.8    c-8.895,2.922-18.89,3.815-28.103,5.916c-3.837,0.876-9.054-0.925-11.834,0.741H32.957c-8.687,0-19.764-0.994-25.145,2.218v44.373    c0,7.87-0.628,16.722,2.218,21.446h217.427c47.208,0,96.442,2.076,131.639-9.614C424.845,531.313,472.81,485.288,498.871,423.73z     M604.626,494.727H472.247c-4.493,6.867-11.94,13.528-18.488,18.488c-8.837,6.692-16.629,15.685-25.885,22.186    c-10.195,7.161-21.865,12.719-32.539,19.229c-0.056,3.903,0.303,5.953,1.479,8.135h190.063c6.516,0,14.955,0.699,19.229-1.479    v-45.852C606.105,508.577,606.966,499.281,604.626,494.727z" />
	</g>
	<g>
		<path fill="none" stroke="#FFFFFF" stroke-miterlimit="10" d="M498.871,423.73c6.974-16.475,9.547-34.913,14.051-53.987v-8.876    c5.926-26.063-0.941-64.452-7.396-84.308c-25.225-77.599-74.438-127.683-151.607-153.086c-10.368-3.413-21.69-4.121-32.539-6.656    c-12.442-2.908-42.595-2.63-54.727,0h-8.135c-11.228,2.654-23.267,3.823-34.019,7.395c-21.986,7.304-43.227,16.605-60.644,28.842    c-6.198,4.355-11.8,10.313-17.749,14.792c-9.829,7.4-20.468,16.403-27.363,26.623c-5.72-0.467-8.255-3.486-11.833-5.917    C89.94,177.025,79.765,151.136,93.6,128.65c4.316-7.015,11.798-13.908,19.228-17.749c4.063-2.1,9.73-1.821,13.312-4.438    c3.646-0.096,10.242-0.788,12.572,0.74c0.66,0.869-1.901,6.1-2.958,8.135c-3.076,5.924-7.496,17.542-11.833,22.187    c-0.032,3.725,0.36,5.321,1.479,7.396c17.663-0.393,31.237-8.156,45.112-13.312c19.414-7.213,40.639-10.786,58.423-19.967    c-0.352-16.557-9.433-36.479-14.79-49.549c-7.289-17.784-10.005-37.577-18.489-53.987c-14.491-0.242-17.535,26.178-25.145,34.759    c-1.928,1.165-9.011-2.175-11.833-2.958c-8.214-2.279-18.438-2.418-28.103-2.219c-21.581,0.445-40.682,5.487-54.726,14.051    c-22.824,13.917-40.336,33.823-51.029,59.903c-3.021,7.368-4.06,16.347-5.916,24.405c-2.14,9.287-0.36,28.571,1.479,36.237    c1.527,6.366,0.91,10.684,2.958,16.27c10.788,29.429,31.113,53.675,58.424,66.56c-2.691,10.272-7.216,21.237-10.353,31.8    c-3.472,11.691-1.593,23.232-4.438,36.239c-1.352,6.181-2.312,24.536-0.74,31.801c1.994,9.211,1.247,19.509,3.698,28.842    c2.957,10.599,5.917,21.202,8.875,31.8c-10.858,1.841-27.475,10.972-36.238,16.271c-0.201,11.998,13.803,11.977,22.186,15.53    c16.251,6.889,34.042,13.808,50.29,20.707c6.82,2.896,15.058,3.937,20.707,8.135h8.135c3.22-1.489,7.744-18.513,9.613-22.926    c6.081-14.346,12.5-29.942,18.489-44.371c3.624-8.73,4.985-19.409,10.353-26.625c0.056-3.904-0.304-5.953-1.479-8.135    c-15.608,0.23-26.188,8.088-37.717,13.312c-12.832-32.098-9.399-74.748,2.958-104.276c19.152-45.763,49.692-75.444,98.36-91.703    c24.481-8.18,60.466-10.833,87.266-2.219c17.534,5.636,34.266,13.268,48.07,22.926c29.915,20.929,50.812,52.139,62.123,91.704    c2.366,8.281,0.965,15.234,2.957,24.405c2.219,10.216,0.603,25.358-1.479,34.019c-1.825,7.594-1.482,13.088-3.697,19.968    c-6.771,21.013-17.201,37.489-28.843,53.248c-5.277,7.143-11.455,15.424-18.488,20.707c-17.02,12.783-35.22,24.419-57.685,31.8    c-8.895,2.922-18.89,3.815-28.103,5.916c-3.837,0.876-9.054-0.925-11.834,0.741H32.957c-8.687,0-19.764-0.994-25.145,2.218v44.373    c0,7.87-0.628,16.722,2.218,21.446h217.427c47.208,0,96.442,2.076,131.639-9.614C424.845,531.313,472.81,485.288,498.871,423.73z     M604.626,494.727H472.247c-4.493,6.867-11.94,13.528-18.488,18.488c-8.837,6.692-16.629,15.685-25.885,22.186    c-10.195,7.161-21.865,12.719-32.539,19.229c-0.056,3.903,0.303,5.953,1.479,8.135h190.063c6.516,0,14.955,0.699,19.229-1.479    v-45.852C606.105,508.577,606.966,499.281,604.626,494.727z" />
	</g>
</g>
</g></svg>